<svg xmlns="http://www.w3.org/2000/svg" width="60" height="60" viewBox="0 0 60 60">
  <g id="i_cal" transform="translate(-1290 -674)">
    <rect id="사각형_960" data-name="사각형 960" width="60" height="60" rx="20" transform="translate(1290 674)" fill="#e9d2ff"/>
    <g id="그룹_1846" data-name="그룹 1846" transform="translate(1302 688)">
      <path id="패스_4584" data-name="패스 4584" d="M34.168,43.715H6.234a2.641,2.641,0,0,1-2.641-2.641V21.111H36.809V41.074a2.641,2.641,0,0,1-2.641,2.641" transform="translate(-2.025 -11.895)" fill="#fff"/>
      <path id="패스_4585" data-name="패스 4585" d="M34.569,17.083H1.784A1.784,1.784,0,0,1,0,15.3V10.527A1.784,1.784,0,0,1,1.784,8.743H34.569a1.784,1.784,0,0,1,1.784,1.784V15.3a1.784,1.784,0,0,1-1.784,1.784" transform="translate(0 -4.926)" fill="#3e5285"/>
      <path id="패스_4586" data-name="패스 4586" d="M19.544,40.486H15.88a1.159,1.159,0,0,1-1.159-1.159V36.466a1.159,1.159,0,0,1,1.159-1.159h3.664A1.159,1.159,0,0,1,20.7,36.466v2.861a1.159,1.159,0,0,1-1.159,1.159" transform="translate(-8.296 -19.893)" fill="#c9daf4"/>
      <path id="패스_4587" data-name="패스 4587" d="M39.607,40.486H35.943a1.159,1.159,0,0,1-1.159-1.159V36.466a1.159,1.159,0,0,1,1.159-1.159h3.664a1.159,1.159,0,0,1,1.159,1.159v2.861a1.159,1.159,0,0,1-1.159,1.159" transform="translate(-19.599 -19.893)" fill="#83e0a9"/>
      <path id="패스_4588" data-name="패스 4588" d="M59.67,40.486H56.006a1.159,1.159,0,0,1-1.159-1.159V36.466a1.159,1.159,0,0,1,1.159-1.159H59.67a1.159,1.159,0,0,1,1.159,1.159v2.861a1.159,1.159,0,0,1-1.159,1.159" transform="translate(-30.637 -19.893)" fill="#c9daf4"/>
      <path id="패스_4589" data-name="패스 4589" d="M19.544,56.433H15.88a1.159,1.159,0,0,1-1.159-1.159V52.413a1.159,1.159,0,0,1,1.159-1.159h3.664A1.159,1.159,0,0,1,20.7,52.413v2.861a1.159,1.159,0,0,1-1.159,1.159" transform="translate(-8.296 -28.878)" fill="#c9daf4"/>
      <path id="패스_4590" data-name="패스 4590" d="M39.607,56.433H35.943a1.159,1.159,0,0,1-1.159-1.159V52.413a1.159,1.159,0,0,1,1.159-1.159h3.664a1.159,1.159,0,0,1,1.159,1.159v2.861a1.159,1.159,0,0,1-1.159,1.159" transform="translate(-19.599 -28.878)" fill="#c9daf4"/>
      <path id="패스_4591" data-name="패스 4591" d="M39.607,56.433H35.943a1.159,1.159,0,0,1-1.159-1.159V52.413a1.159,1.159,0,0,1,1.159-1.159h3.664a1.159,1.159,0,0,1,1.159,1.159v2.861a1.159,1.159,0,0,1-1.159,1.159" transform="translate(-10.575 -28.878)" fill="#c9daf4"/>
      <path id="패스_4592" data-name="패스 4592" d="M10.257,0h0A1.45,1.45,0,0,0,8.715,1.336V6.651a1.45,1.45,0,0,0,1.542,1.336A1.45,1.45,0,0,0,11.8,6.651V1.336A1.45,1.45,0,0,0,10.257,0" transform="translate(-4.911)" fill="#fff"/>
      <path id="패스_4593" data-name="패스 4593" d="M29.849,0h0a1.45,1.45,0,0,0-1.542,1.336V6.651a1.558,1.558,0,0,0,3.084,0V1.336A1.45,1.45,0,0,0,29.849,0" transform="translate(-15.95)" fill="#fff"/>
      <path id="패스_4594" data-name="패스 4594" d="M49.441,0h0A1.45,1.45,0,0,0,47.9,1.336V6.651a1.558,1.558,0,0,0,3.084,0V1.336A1.45,1.45,0,0,0,49.441,0" transform="translate(-26.988)" fill="#fff"/>
      <path id="패스_4595" data-name="패스 4595" d="M69.032,0h0A1.45,1.45,0,0,0,67.49,1.336V6.651a1.558,1.558,0,0,0,3.084,0V1.336A1.45,1.45,0,0,0,69.032,0" transform="translate(-38.026)" fill="#fff"/>
    </g>
  </g>
</svg>
