<svg xmlns="http://www.w3.org/2000/svg" width="215" height="32.96" viewBox="0 0 215 32.96">
  <g id="logo" transform="translate(-270.141 -202.788)">
    <g id="그룹_4" data-name="그룹 4">
      <g id="그룹_3" data-name="그룹 3">
        <g id="그룹_1" data-name="그룹 1">
          <path id="패스_1" data-name="패스 1" d="M320.66,202.875a.379.379,0,0,0-.148-.079c-.233-.047-.459.125-.811.41l-.266.21c-.954.523-1.679,2.974-1.839,3.982l-.1.057a4.174,4.174,0,0,0-2.766-2.156c.44,1.743,1.926,7.006,3.9,6.551,1-.23,3.1-4.6,3.121-7v-.091C321.738,203.486,321.169,203.028,320.66,202.875Z" fill="#ff7f15"/>
        </g>
        <path id="패스_2" data-name="패스 2" d="M333.994,229.679c-2.479.107-3.3-.027-5.735.794a2.033,2.033,0,0,0-.9.662c.037.528-.269,1.363.209,1.563.023,0,.023.082.046.126.139.145.284.169.426.351.092.135.164-.012.264.041.046.047.069.131.116.142.24.116.457.07.694.186a.6.6,0,0,0,.361.1c.072-.028.168.147.19.189a2.906,2.906,0,0,0,1.325.013c1.374-.022,1.116-.161,2.489-.185,1.156-.017,2.286.165,3.441.147.628-.021,1.31,0,1.932-.045,1.108-.067,2.219.109,3.329.122.554-.014,1.2.211,1.759.255a8.323,8.323,0,0,1,1.782-.03,1.5,1.5,0,0,1,.584.079,1.518,1.518,0,0,0,.546.2,3.5,3.5,0,0,0,1.52-.366,3.425,3.425,0,0,0,.9-.335.822.822,0,0,0,.326-.53,2.248,2.248,0,0,0,.11-1.386c-.029,0-.1.034-.126-.01-.051-.085-.04-.281-.112-.289a5.071,5.071,0,0,0-.663-.168c-.294-.063-.6-.2-.887-.262A73.255,73.255,0,0,0,333.994,229.679Z" fill="#00a475"/>
        <path id="패스_3" data-name="패스 3" d="M310,230.618c.25.057.535.05.668.222.135.136-.131.354-.114.532-.006.422.147.8.142,1.224a.28.28,0,0,1-.1.217,1.152,1.152,0,0,1-.3.29c-.347.226-.8.139-1.2.259a8.27,8.27,0,0,1-1.6.276,19.838,19.838,0,0,1-2.856-.137,2.758,2.758,0,0,0-1.081.149,4.328,4.328,0,0,1-1.335.087c-2.32-.087-4.6-.138-6.91-.117-.407.015-.849.067-1.254.083-1.858.108-3.712.074-5.574.124-.648.017-1.293.038-1.946.021-.36.007-.729.017-1.053.024-1.372.075-2.783.139-4.165.079-.525.008-1.09.009-1.618.017a41.656,41.656,0,0,1-4.646.253,7.659,7.659,0,0,1-3.249-.885,4.431,4.431,0,0,1-1.667-1.532,1.828,1.828,0,0,1,1.1-.611c1.037-.287,2-.472,3.042-.657.882-.152,1.688-.227,2.538-.305a202.7,202.7,0,0,1,28.449-.308A30.061,30.061,0,0,1,310,230.618Z" fill="#4370b5"/>
        <path id="패스_4" data-name="패스 4" d="M330.069,219.88v.133c.1.262.294.326.5.523h.644c0-.131.149,0,.149-.131a.54.54,0,0,0,.472-.26h.106a.551.551,0,0,1,.48-.332c.263-.329.528-.655.794-.983a.381.381,0,0,1,.159-.331,12.033,12.033,0,0,1,.529-1.84,2.705,2.705,0,0,0,.052-.659c.054,0,.106,0,.106-.065a.575.575,0,0,1,.213-.525c.105,0,.212,0,.265-.131v-.133a1.106,1.106,0,0,1,.773.459h.349c0,.133.067.133.14.2a3.539,3.539,0,0,1,1.172.065c0,.2.28.13.35.326a1.864,1.864,0,0,0,.21.594.233.233,0,0,1-.071.2c.139.2.279.527.071.724.068.26,0,.589.139.852-.139.131-.071.331-.071.462a3.617,3.617,0,0,1,.212.922c.279.328.207.721.419,1.051v.392c.138,0,0,.2.138.2a7.673,7.673,0,0,1-.138,1.252c-.072.066-.14.131-.212.2v.132c-.069,0-.139,0-.139-.067-.139.195-.348.33-.491.526-.137-.068-.209.063-.275.063-.141,0,0,.2-.141.2a.553.553,0,0,0-.35.131c-.139.066-.613-.066-.754.066l-.069-.066a.377.377,0,0,1-.278.133c0-.067,0-.133-.072-.133a.5.5,0,0,1-.558.261c-.061-.129-.036-.228-.2-.289a2.747,2.747,0,0,0-.264-1.128c.053,0,.053-.058.053-.115a2.064,2.064,0,0,1-.158-.538c-.161-.234-.214-.591-.426-.768.052-.061-.106-.119-.053-.181l-.266-.294c-.105,0-.105.059-.157.117-.054.3-.321.534-.372.834l-.053-.062c-.054.176-.212.295-.212.475-.107.058-.159.237-.265.3v.12c-.371.356-.572.927-1.018,1.179-.109.246-.389.3-.5.572a2.429,2.429,0,0,0-.637.138c-.136-.069-.345-.208-.483-.069,0-.069-.07-.069-.139-.069l-.068.069c-.139-.139-.348,0-.555-.069a8.824,8.824,0,0,0-1.386-.76c-.141,0,0-.208-.141-.208a.244.244,0,0,1-.2-.069c0-.208.067-.347-.142-.484l.069-.07c0-.069-.069-.069-.136-.069-.069-.413-.277-.76-.346-1.172-.074-.071-.074-.071-.139-.139a1.252,1.252,0,0,0-.141-.552c-.067-.276.173-.51.039-.773a.237.237,0,0,1,.066-.194,1.853,1.853,0,0,1,.068-.855c-.068,0-.068-.065-.068-.132a1.64,1.64,0,0,0,.134-.788c.064-.2.2-.394.263-.592l-.065-.066c.129-.132.065-.331.264-.462,0-.063,0-.13-.068-.13,0-.133.131-.2.2-.265a2.872,2.872,0,0,1,.478-.748l-.051-.076a.92.92,0,0,1,.645-.263,1.476,1.476,0,0,1,.615.22c.076.155,0,.279.1.475h.1v.132c0,.066.049.066.1.066a1.2,1.2,0,0,1,.1.59c0,.068.051.068.1.068-.051.129.1.262.1.394-.1.132,0,.329-.051.525.149.329.1.725.246,1.053A1.686,1.686,0,0,0,330.069,219.88Z" fill="#231815"/>
        <path id="패스_5" data-name="패스 5" d="M304.477,222.317a1.416,1.416,0,0,1,.329.3.831.831,0,0,0,.3.329,2.007,2.007,0,0,1,.27.136l.086.183.215.206c.228.07.274-.067.448.178.077,0,.152,0,.152.07l.076-.07a1,1,0,0,0,.306.278.855.855,0,0,1,.58.229c.074,0,.084.159.084.09.234.063.393.227.545.084.075,0,.152,0,.152.07l.075-.07c.152-.07.185.119.337.048.079,0,.079.071.079.142h.15c.154.139.8-.046.957.1a10.681,10.681,0,0,0,2.267-.093c.008-.138.22.008.225-.125l.07.071c.288.081.6-.263.88-.117.077-.061.077-.061.153-.123.149-.061.357.22.51.024,0,.067.072.07.142.075,0-.068,0-.068.008-.135.225-.124.5-.09.665-.275.072.006.217.022.292.03l.157-.119c.379-.093.708-.4,1.138-.5.066-.075.21-.087.272-.227.073-.007.144-.014.218-.019.066-.07.135-.146.2-.217.225.045.42-.273.636-.307-.01-.065-.022-.131.05-.144l.083.053c.134-.087.134-.087.183-.233.226.031.35-.254.471-.41l.145-.023c.059-.078.059-.078.123-.155.072-.014.072-.014.144-.024.194-.169.306-.39.58-.5-.009-.066-.02-.133.052-.145.153.045.121-.157.183-.232.061-.046.251-.187.3-.123-.009.111.189-.284.178-.178.049.069.3-.6.361-.649l-.608-1.639c-.224.33-1.021,1.4-1.447,1.5.007.346-.363.363-.617.56.015.065.033.129-.042.15-.213.047-.3.293-.446.325-.017-.065-.084-.048-.16-.03-.056.08-.195.114-.235.26-.214.053-.277.269-.4.422l-.084-.055c-.256.245-.628.22-.8.518-.413.2-.766.273-1.193.435-.072.005-.144.01-.147-.058-.064.139-.365.025-.43.165a7.439,7.439,0,0,0-1.238.087c-.006-.135-.218.012-.225-.121-.358.157-.722-.051-1.087-.051-.074-.067-.22-.067-.293-.2a.828.828,0,0,1-.8-.2c-.219,0-.366-.2-.584-.269v-.134l-.148-.134c0-.2.22-.2.365-.268.148-.2.541-.152.686-.354,0-.069.2-.2.2-.266.071-.133.124-.261.195-.261.22-.133.078-.286.369-.355,0-.066.231-.233.155-.3.293-.2.286-.315.359-.718a1.271,1.271,0,0,0,.361-.685c.073-.067-.017-.36.133-.428.07-.467-.118-.716-.118-1.185l-.145-.132c0-.2-.145-.337-.072-.538-.217-.2-.167-.266-.384-.464l-.127-.139h-.145c-.074-.134-.293-.2-.293-.333a5.137,5.137,0,0,1-.875-.4l-.073.067-.073-.067-.148.134c0-.2-.217,0-.289-.134-.149,0-.293-.069-.438.067-.438-.136-.911.1-1.35-.1,0,.133-.293-.066-.293.133-.146.065-.356.061-.43.127h-.218a1.129,1.129,0,0,1-.84.434c-.147,0,0,.2-.147.2h-.145a7.66,7.66,0,0,1-1.093,1.007c0,.065-.147.13-.073.268,0,.066-.074.066-.148.066a.341.341,0,0,1-.145.267c0,.066,0,.136.073.136,0,.063-.112.237-.184.237-.071.266-.071.535-.291.669,0,.533-.152.791-.186,1.379a8.084,8.084,0,0,1,.075,1.064c.228.142-.056.134.1.342.074,0,.033.125.033.195.076.139.32.239.241.378,0,.07.129.133.2.133.076.141-.112.3.043.363,0,.071.243.016.163.155Zm4.761-4.361c-.151.071,0,.213-.151.283l.074.069a2.756,2.756,0,0,1-1.178,1.912c-.073,0-.149,0-.149-.068,0-.145-.146-.357-.071-.5,0-.07-.075-.07-.149-.07.149-.143-.1-.284-.024-.5-.075,0-.075-.07-.075-.142.221-.142.04-.508.26-.647l-.071-.07a1.924,1.924,0,0,1,.335-.5v-.142a2.9,2.9,0,0,1,1.047-.546c.074,0,.151,0,.151.069C309.457,217.393,309.311,217.671,309.238,217.956Z" fill="#231815"/>
        <path id="패스_6" data-name="패스 6" d="M321.924,217.311c.008.094.017.187.028.276.5.5.4,1.353.733,1.962-.159.209-.044.476-.112.673.1.081.1.081.192.162-.128.484.185.91.142,1.385l-.163.209c.008.09.02.183.111.17l-.08.1.1.082-.078.107c.086-.012.1.081.1.172-.156.206.137.45-.112.667a.339.339,0,0,1,.114.269c-.247.22-.1.616-.269.9l.09.089-.085.1-.093-.089c-.087,0-.087.1-.086.189.1.181.277.357.1.55l.1.09a1.157,1.157,0,0,0-.422.7c-.083.094-.083.094-.163.188a.329.329,0,0,1,.087.262c-.161.188-.242.37-.4.558,0,.088.09.262-.076.361l.086.083c-.081.182-.158.454-.234.635.083,0,.083.085.085.175-.247.189-.532.392-.442.744-.158.275-.364.37-.527.645.088.175-.3.253-.289.432s-.248.1-.159.273l.085.085c-.085,0-.085,0-.166.011-.082.181-.082.181-.243.278,0,.09,0,.179-.082.182a3.211,3.211,0,0,0-.383.442c.086.084-.267.271-.184.274a.5.5,0,0,0-.2.343c-.08,0-.163-.009-.173.082l0,.116c-.059.061-.073.058-.2.088-.652.766-1.6,1.071-2.254,1.833l-.522.241c-.176.081-.118.349-.272.25.007-.089-.225.075-.309.074-.182.166-.455.045-.622.036.006-.09-.092-.07-.168-.162l-.095.081c-.074-.09-.261-.272-.345-.277-.073-.091.09-.185.009-.188l.09-.085c.007-.09-.129-.109-.213-.116-.15-.185.17-.044.1-.225l-.326-.031c-.078-.174-.237-.179-.306-.359.017-.175.383-.173.4-.349.168.007.119-.02.3-.1l-.062-.128c.18-.082.152-.234.232-.229-.008.089.063-.013.144-.008s.167.008.176-.081a.348.348,0,0,1,.106-.259l.17.009a3.64,3.64,0,0,0,.5-.538c.007-.087.007-.087.016-.177.09-.083.1-.26.28-.341-.008.09-.019.177.067.181.265-.163.107-.261.04-.44.092-.087.092-.087.183-.168-.007.089.14.021.056.018-.007.087.089-.209.172-.2.207-.329.055.061.362-.544.064-.068.221-.131.235-.174-.019-.007.193-.089.118-.179-.009-.073.02-.1-.152-.019.1-.172.393-.435.406-.611.241.1.05-.3.213-.289-.09.081-.17-.089-.169,0l.277-.011c.184-.167-.258-.159-.092-.348,0-.089-.028-.139-.112-.134,0-.089-.022-.161.062-.168l.085.085c.081-.092-.079-.39.086-.489,0-.091,0-.179,0-.266.245-.191.134-.161.21-.432l-.083-.083c0,.086.179-.084.1-.079,0-.09,0-.09,0-.179.165-.1.283-.69.277-.868.006.178-.195-.4-.027-.325.241-.37.075-.863.114-1.317-.174-.07.135-.2.038-.361-.085.008-.165.022-.175-.067l.146-.2c-.007-.089-.016-.178-.1-.167-.009-.089-.017-.178.064-.187-.01-.09-.017-.177-.1-.166.074-.1.074-.1.148-.2-.009-.085-.092-.078-.175-.065.05-.368-.306-.631-.174-1-.084.01-.092-.077-.1-.168.222-.3-.079-.655.058-.94-.173-.069-.107-.257-.128-.435.076-.1-.137-.187-.144-.273a6.314,6.314,0,0,1-.285-1.206c-.166.153-.284-1.237-.429-1.778-.216-.35-.071-.74-.2-1.1.087-.013.178-.026.168-.116-.114-.266.145-.392.2-.68.18-.023.349-.14.547.022.169-.114.06-.287.051-.379l.978-.127c.013.091.017.185.11.172.265-.032.376.138.639.1.008.094.019.187.108.175a.44.44,0,0,1,.373.14c.089-.015.18-.024.17-.115l.1.079.08-.1a.308.308,0,0,0,.273.058c.1.082.127.36.3.243A23.146,23.146,0,0,1,321.924,217.311Z" fill="#231815"/>
        <g id="그룹_2" data-name="그룹 2">
          <path id="패스_7" data-name="패스 7" d="M282.591,218.96c-.03-.147-.239-.191-.324-.2s-.247.186-.33.041a1.441,1.441,0,0,1-.312.364.5.5,0,0,1-.294.072c-.042.226-.067.251.127.782.086.017.179.526.272.546-.041-.2.254.423.348.508l.122.031c.058.017.032.073,0,.129l.267.194c.027.074.086.1.019.2a1.459,1.459,0,0,1,.507.218c.055.028.022.078-.013.129.055.024.114.051.147,0,.15,0,.043.154.066.229l.09-.025c.023.075.135.128.135.128.182.282,1.05.622,1.268.874l.085-.041c.066.145.448.173.448.362l.081-.05c.04.069.615.183.774.27.08-.053-.033-.14.055-.185.091.086.292.273.385.36a3.544,3.544,0,0,1,.424.062c.222.243.683.091.955.22a.185.185,0,0,0,.152.1l.086-.043.034.072c.169-.089.261,0,.377-.107l.033.074.082-.046c.036.071.036.071.069.145.238.055.454.17.706.034a.186.186,0,0,0,.153.1c.086-.042.086-.042.173-.087.178.039.213.113.415.1l.034.074a.833.833,0,0,1,.671-.038c.051-.117.18.043.23-.075l.032.073c.2-.147.5-.068.707-.079l.033.074c.086-.044.054.005.054.005.17-.083.587-.089.7-.187a.882.882,0,0,0,.551.066c.066.017.2.048.261.068a.607.607,0,0,1,.721-.041,3.9,3.9,0,0,0,.9-.39c.065.023.133.041.2.061.1-.035.16-.014.227-.126a3.1,3.1,0,0,0,.77-.392c.028.077.191-.069.226.005.032-.055.032-.055.067-.109.129.039.226-.125.356-.085.035-.057.035-.057.067-.113.2-.07.119-.121.315-.19.168-.119.4-.522.789-.7-.009-.129.244-.2.3-.316.026-.058.094-.042.159-.026l-.04-.074c.1-.042.071-.235.159-.15.024-.058.138-.206.081-.222.188-.15.186-.642.46-.7a1.024,1.024,0,0,1,.049-.115c.11-.153.066-.437.129-.472.023-.058-.009-.1.049-.083.07-.228.122-.575.189-.879-.057-.015-.031-.073-.007-.132.056.016.08-.044.1-.1-.056-.014-.032-.074-.007-.133l.081-.045c-.116-.025.014-.185-.1-.211l.076-.049c-.1-.275.043-.56-.051-.836l.074-.044a.373.373,0,0,1,0-.489.219.219,0,0,1,0-.191c-.152-.1.033-.2-.063-.289.056-.177-.132-.351-.019-.516-.075-.145-.089-.205-.171-.346.017-.062.033-.123.049-.183-.056-.013-.112-.022-.1-.084.091-.107-.007-.19.024-.31-.113-.025-.053-.126-.092-.2a1.706,1.706,0,0,0-.3-.844c.076-.118-.083-.594-.073-.74l-.113-.061a.546.546,0,0,0-.211-.311c.006-.073.006-.073.01-.146-.059,0-.115-.006-.112-.082s.006-.073.012-.149l-.064.073a.427.427,0,0,1-.148-.38c-.211-.309-.29-.529-.592-.973-.118.07,0-.234-.145-.165a1.739,1.739,0,0,0-.509-.7c.006-.073.006-.073.014-.15a1.265,1.265,0,0,1-.132,0c-.067,0-.059-.073-.051-.15-.377-.234-1.711-.429-1.915-.811-.118,0-.23-.082-.3.065l-.105-.154c-.311.215-.574-.167-.865-.251l-.063.072c-.1-.228-.292-.012-.41-.014a.179.179,0,0,0-.169-.08c-.308.138-.587-.02-.851.346l-.054-.076.665,1.282a5.619,5.619,0,0,0,.35,1.265c.059.016.135.159.179.24-.018.071-.018.071-.032.142.091.167.18.331.264.5-.059-.016-.073.055-.087.126.071.238.068.49.137.721.093.086-.015.137.087.245.009.011-.06.15-.048.16a.364.364,0,0,0,.029.253c.034.256.022.054.192.237-.158.2.111.516-.052.712.088.091.092-.039.118.037-.029.05-.029.05-.056.1s.027.073.082.1c.054.144-.045.231.029.37.058.013,0,.193.064.205.013.129.174.169.023.259-.059-.014-.027.247-.085.419a1.05,1.05,0,0,1-.017.426c.056.013.1-.057.075,0s-.019.057-.039.115c.056.012.05.117.03.177,0,.183-.116.278-.177.45-.064.372.124.677-.121.811.087.081-.017.181-.044.238-.084.042-.061.223-.136.267-.092.232-.133.219-.226.447-.149.089-.173.187-.321.277a1.109,1.109,0,0,1-.048.111c-.023.059-.072.046-.126.034-.1.1-.434.263-.48.374l.027.073a2.285,2.285,0,0,0-.483.234c-.221.137-.386.137-.615.257-.2-.054-.376.1-.577.038-.076.042-.154.086-.228.124-.1-.027-.255.053-.333-.03-.1-.027-.076.165-.177.137l-.1-.027-.025-.072c-.154.085-.276-.014-.433.064l-.025-.066c-.152.079-.279-.007-.377.094a1.164,1.164,0,0,0-.641-.077c.024-.058-.027-.067-.081-.077l-.07.05c.019-.061-.436-.025-.486-.033l-.105-.02-.028-.069-.077.049c-.08-.08-.626-.134-.756-.282-.1.1-.2.057-.321.033a5.549,5.549,0,0,1-1.143-.267l-.033-.074a.447.447,0,0,1-.527-.15,1.978,1.978,0,0,1-.2-.037c-.062-.147-.448-.119-.5-.271a1.771,1.771,0,0,1-.274-.237c-.124.078-.442-.312-.5-.336l-.212-.011-.077-.235-.283-.216C282.745,218.976,282.627,219.147,282.591,218.96Z" fill="#231815"/>
          <path id="패스_8" data-name="패스 8" d="M287.065,210.425c.08,0,.158.007.235.013.377.4,1.121.282,1.613.536.2-.143.41-.059.586-.123l.119.157c.433-.133.667.093,1.077.063l.2-.134c.072.006.152.019.129.093l.1-.065.056.083.1-.065c-.023.072.055.085.129.089.2-.129.323.046.554-.151a.245.245,0,0,0,.2.111c.231-.2.311.011.593-.083l.049.089.1-.055-.047-.092c.027-.074.1-.056.178-.039.123.107.209.27.423.169l.04.091c.132-.094-.889-.145.7-.2.1-.046.1-.046.2-.094a.24.24,0,0,0,.184.13c.2-.093.375-.122.577-.214.072.019.184.126.316.012l.041.087c.174-.027.416-.034.589-.061-.03.066-.116-.092-.05-.062.245-.126.513-.278.743-.09.27-.031.388-.173.663-.193.09.135.311-.129.44-.055s.135-.122.218.016l.024.1.084-.121a.354.354,0,0,0,.308-.066c.063.035.127.075.169.015a3.211,3.211,0,0,1,.487-.106c.024.1.17-.049.133.012a.393.393,0,0,1,.331.03c.04-.06.081-.122.145-.082l.075.059c.069-.013.077-.022.162-.093.852-.078,1.327-.508,2.172-.508l.443-.207c.15-.072.284.118.311-.041-.06-.043.174-.1.218-.158.209-.024.336-.4.42-.515-.06-.041,0-.1-.016-.2l.1-.018a1.889,1.889,0,0,1,0-.584c-.018-.1-.165-.035-.124-.093l-.038-.07c-.059-.044.019-.153.059-.211-.04-.2-.218.027-.3-.116l.152-.238c-.07-.145-.383-.228-.507-.314-.084.121-.077.073-.219.15l-.053-.111c-.147.081-.232-.019-.272.039.059.042-.043.036-.083.091s-.083.119-.145.079a.283.283,0,0,0-.225-.067c-.041.063-.041.063-.082.12a3.183,3.183,0,0,1-1.433-.037c-.1.025-.1.025-.2.054.066.036-.053.11-.017.048.066.035-.186-.033-.221.032-.33-.005-1.054.073-.912-.018-.167-.008-.493.083-.623.015-.046.219-.278-.128-.349,0,.1-.03-.127-.042-.061-.013l.007.088c-.2.063-.221-.134-.424-.058-.068-.03-.1-.063-.062-.127-.069-.027-.116-.068-.149,0l.034.091c-.1.038-.277-.177-.414-.079-.066-.029-.134-.055-.2-.082a1.661,1.661,0,0,1-.734.152l-.046-.086c.07.017-.118.134-.094.065a1.164,1.164,0,0,0-.145-.031,1.356,1.356,0,0,1-.783.084c.145.032-.292-.263-.268-.109-.364.147-.783-.075-1.17-.075-.023-.155-.187.1-.313,0,.025-.067.049-.139-.02-.151-.1.055-.171.03-.265.091-.075-.007-.15-.021-.125-.089-.076-.009-.152-.017-.171.052-.074-.013-.149-.021-.126-.093-.1.061-.194.135-.286.2-.073-.005-.056-.078-.037-.15-.319.048-.5-.25-.838-.135.017-.069-.054-.074-.129-.082-.282.193-.678-.017-.939.117-.043-.139-.21-.071-.36-.074-.092.068-.151-.107-.224-.109a4.923,4.923,0,0,0-1.017-.157c.145-.149-1.037-.155-1.491-.241-.283-.157-.632-.01-.929-.093-.015.076-.035.154-.113.151-.218-.079-.35.149-.6.221-.033.152-.2.225-.152.356-.11.15-.124.178-.2.173-.069.306-.117.275-.194.579.079,0,.158.007.136.079-.057.229.079.314.022.54.076,0,.159.01.137.082a.336.336,0,0,0,.08.314c-.019.074-.039.15-.113.147l.056.079-.1.071a.236.236,0,0,1,.02.232c.061.078.3.091.181.238A15.093,15.093,0,0,0,287.065,210.425Z" fill="#231815"/>
        </g>
      </g>
    </g>
    <g id="그룹_5" data-name="그룹 5">
      <path id="패스_9" data-name="패스 9" d="M361.363,228.218a3.339,3.339,0,0,1-.678-.066,20.722,20.722,0,0,1,.1,2.2,16.692,16.692,0,0,1-.175,3.8c-.128.207-.28.223-.475.316.027.066.041.109.063.174s.035.114.051.187a1.764,1.764,0,0,0,1.644-1.633c.049-1.1.013-1.741.019-2.837,0-.844.045-1.359.071-2.209A2.983,2.983,0,0,1,361.363,228.218Z" fill="#717071"/>
      <path id="패스_10" data-name="패스 10" d="M364.571,229.695a1.725,1.725,0,0,0-1.823,1.948,1.778,1.778,0,0,0,1.808,2.01,1.8,1.8,0,0,0,1.173-.358l.159-.426-.1-.069a1.344,1.344,0,0,1-.884.362c-1.078,0-1.078-1.384-1.064-1.462h2.173C366.072,231.389,366.12,229.695,364.571,229.695Zm.44,1.609h-1.146c-.013-.023.006-1.279.615-1.279C365.042,230.025,365.01,231.3,365.01,231.3Z" fill="#717071"/>
      <path id="패스_11" data-name="패스 11" d="M367.574,229.826a3.591,3.591,0,0,1-.573-.038c.037.674.045,1.059.045,1.729a11.7,11.7,0,0,1-.128,3,1.188,1.188,0,0,1-.478.419l.072.266a2.005,2.005,0,0,0,1.1-.515c.65-.6.448-1.66.448-3.21,0-.647.03-1.032.079-1.684A3.559,3.559,0,0,1,367.574,229.826Z" fill="#717071"/>
      <path id="패스_12" data-name="패스 12" d="M367.581,227.764a.608.608,0,1,0,.588.608A.606.606,0,0,0,367.581,227.764Z" fill="#717071"/>
      <path id="패스_13" data-name="패스 13" d="M371.862,229.838a2.556,2.556,0,0,1-.539-.05c0,.006.049,1.264.034,2.036-.013.528-.113,1.161-.678,1.156-.59-.009-.6-.643-.6-1.156-.008-.815.063-2,.084-2.036a3.346,3.346,0,0,1-.539.05,3.16,3.16,0,0,1-.6-.05s.023.954.023,1.552c0,1-.272,2.326,1.164,2.326a1.439,1.439,0,0,0,1.155-.675l-.029.537a3.227,3.227,0,0,1,.519-.043,2.07,2.07,0,0,1,.519.043c-.024-.674-.034-1-.034-1.661.007-.807.018-1.282.064-2.079A2.582,2.582,0,0,1,371.862,229.838Z" fill="#717071"/>
      <path id="패스_14" data-name="패스 14" d="M377.614,230.332c-.275-.151-1.173-.455-1.165-1.081a.753.753,0,0,1,.773-.75.951.951,0,0,1,.946.685l.117,0,.226-.775a1.81,1.81,0,0,0-1.254-.372,1.655,1.655,0,0,0-.553,3.224c.492.245,1.168.493,1.154,1.127a.786.786,0,0,1-.9.789,1.03,1.03,0,0,1-1.031-.86h-.138a3.584,3.584,0,0,1-.071.486,4.26,4.26,0,0,1-.141.526,2.121,2.121,0,0,0,1.237.327,1.753,1.753,0,0,0,1.973-1.7C378.782,231.172,378.482,230.818,377.614,230.332Z" fill="#717071"/>
      <path id="패스_15" data-name="패스 15" d="M381.575,229.71a1.158,1.158,0,0,0-1.149.771l.056-.693a1.959,1.959,0,0,1-.533.066,1.814,1.814,0,0,1-.5-.066c.049,1.237.056,1.962.041,3.2-.014,1.064-.036,1.689-.1,2.749a3.534,3.534,0,0,1,.545-.045,2.463,2.463,0,0,1,.562.059c-.008-.381-.015-.6-.015-.991-.006-.612-.006-.975-.013-1.589a1.064,1.064,0,0,0,1.058.6c.983,0,1.49-.919,1.49-2.058C383.023,230.482,382.516,229.71,381.575,229.71Zm-.448,3.536c-.6.009-.666-.818-.666-1.437,0-.684.17-1.6.72-1.6.639,0,.717.882.717,1.543S381.75,233.247,381.127,233.247Z" fill="#717071"/>
      <path id="패스_16" data-name="패스 16" d="M385.531,229.695a1.725,1.725,0,0,0-1.821,1.948,1.878,1.878,0,0,0,2.978,1.652l.16-.426-.1-.069a1.337,1.337,0,0,1-.88.362c-1.081,0-1.081-1.384-1.069-1.462h2.172C387.031,231.389,387.081,229.695,385.531,229.695Zm.441,1.609h-1.146c-.014-.023.009-1.279.616-1.279C386,230.025,385.972,231.3,385.972,231.3Z" fill="#717071"/>
      <path id="패스_17" data-name="패스 17" d="M389.778,230.093a.773.773,0,0,1,.769.776l.185.031.3-.828a2.165,2.165,0,0,0-1.3-.36,1.9,1.9,0,0,0-2.018,1.976,1.816,1.816,0,0,0,1.925,1.952,1.789,1.789,0,0,0,1.1-.3l.173-.461-.131-.1a1.124,1.124,0,0,1-.919.362c-.707,0-.993-.695-.993-1.527C388.868,230.92,389.133,230.093,389.778,230.093Z" fill="#717071"/>
      <path id="패스_18" data-name="패스 18" d="M393.218,229.789a3.669,3.669,0,0,1-.576.038,2.974,2.974,0,0,1-.578-.038c.027.674.034,1.049.034,1.722-.007.8-.027,1.232-.076,2.018a3.792,3.792,0,0,1,.572-.058,3.206,3.206,0,0,1,.58.058c-.046-.81-.063-1.242-.046-2.056C393.139,230.826,393.162,230.441,393.218,229.789Z" fill="#717071"/>
      <path id="패스_19" data-name="패스 19" d="M392.634,227.712a.609.609,0,0,0-.6.613.6.6,0,1,0,1.2.017A.624.624,0,0,0,392.634,227.712Z" fill="#717071"/>
      <path id="패스_20" data-name="패스 20" d="M397.26,233.182a.393.393,0,0,1-.132-.34V230.8c0-.7-.56-1.1-1.393-1.1a2.111,2.111,0,0,0-1.387.52l.1.471.064.007a1.234,1.234,0,0,1,.918-.457.689.689,0,0,1,.694.666c0,.5-.533.443-.925.562-.225.074-1.106.247-1.106,1.1a.981.981,0,0,0,1.043,1.062,1.122,1.122,0,0,0,1-.58.786.786,0,0,0,.727.58,1.333,1.333,0,0,0,.711-.226l-.007-.193A.372.372,0,0,1,397.26,233.182Zm-1.133-.8c0,.364-.191.738-.562.738-.391,0-.413-.331-.419-.615a.718.718,0,0,1,.335-.707c.247-.118.623-.277.646-.277Z" fill="#717071"/>
      <path id="패스_21" data-name="패스 21" d="M399.648,227.568a3.253,3.253,0,0,1-.569.057,2.769,2.769,0,0,1-.563-.057c.049,1.221.064,1.988.058,3.219,0,1.088-.023,1.664-.072,2.742a2.4,2.4,0,0,1,.558-.058,2.349,2.349,0,0,1,.6.058c-.023-1.092-.048-1.676-.061-2.769C399.578,229.541,399.628,228.783,399.648,227.568Z" fill="#717071"/>
      <path id="패스_22" data-name="패스 22" d="M405.073,230.332c-.274-.151-1.174-.455-1.166-1.081a.752.752,0,0,1,.774-.75.949.949,0,0,1,.944.685l.118,0,.225-.775a1.807,1.807,0,0,0-1.253-.372,1.656,1.656,0,0,0-.554,3.224c.489.245,1.17.493,1.154,1.127a.784.784,0,0,1-.9.789,1.028,1.028,0,0,1-1.03-.86h-.139a3,3,0,0,1-.071.486,4.062,4.062,0,0,1-.139.526,2.117,2.117,0,0,0,1.236.327,1.751,1.751,0,0,0,1.973-1.7C406.24,231.172,405.942,230.818,405.073,230.332Z" fill="#717071"/>
      <path id="패스_23" data-name="패스 23" d="M408.739,229.695a1.724,1.724,0,0,0-1.82,1.948,1.877,1.877,0,0,0,2.976,1.652l.16-.426-.1-.069a1.34,1.34,0,0,1-.882.362c-1.079,0-1.079-1.384-1.065-1.462h2.169C410.237,231.389,410.288,229.695,408.739,229.695Zm.442,1.609h-1.149c-.012-.023.009-1.279.616-1.279C409.206,230.025,409.18,231.3,409.18,231.3Z" fill="#717071"/>
      <path id="패스_24" data-name="패스 24" d="M412.309,227.568a3.239,3.239,0,0,1-.567.057,2.758,2.758,0,0,1-.564-.057c.048,1.221.064,1.988.056,3.219,0,1.088-.022,1.664-.072,2.742a2.408,2.408,0,0,1,.56-.058,2.345,2.345,0,0,1,.6.058c-.02-1.092-.045-1.676-.059-2.769C412.241,229.541,412.291,228.783,412.309,227.568Z" fill="#717071"/>
      <path id="패스_25" data-name="패스 25" d="M413.716,229.846h-.538a.532.532,0,0,1,.014.187.86.86,0,0,1-.036.211h.56c-.013.588-.013.931-.035,1.522-.026.9-.049,1.06-.076,1.762a2.768,2.768,0,0,1,.547-.035,2.677,2.677,0,0,1,.589.035c0-.607-.027-1.123-.027-1.724,0-.679.027-.845.027-1.523h.727a.728.728,0,0,1-.019-.211.528.528,0,0,1,.034-.2h-.768l-.23-.818c-.116-.408.123-.564.407-.551a1.046,1.046,0,0,1,.663.238l.112-.066c0-.185.008-.307.008-.5s.029-.3.042-.486a1.924,1.924,0,0,0-.363-.042C414.032,227.584,413.7,229.795,413.716,229.846Z" fill="#717071"/>
      <path id="패스_26" data-name="패스 26" d="M418.627,230.62c-.155.007-.754.036-1.225.036-.506,0-.97-.065-1.291-.043a3.034,3.034,0,0,1,.04.447c0,.19-.026.471-.026.486.452-.036.723-.051,1.178-.051.512,0,.819.015,1.33.058a2.048,2.048,0,0,1-.069-.477A1.514,1.514,0,0,1,418.627,230.62Z" fill="#717071"/>
      <path id="패스_27" data-name="패스 27" d="M423.809,231.2a2.528,2.528,0,0,1-.622-.053,8.921,8.921,0,0,1,.054,1.049c0,.326,0,.522-.019.849a1.872,1.872,0,0,1-.856.166c-.169,0-1.8-.081-1.8-2.245-.007-1.083.575-2.394,1.912-2.394a1.747,1.747,0,0,1,1.478.76l.1.022.2-.789a3.167,3.167,0,0,0-1.764-.483,2.834,2.834,0,0,0-3.15,3c0,1.563,1.348,2.569,3.236,2.569a4.432,4.432,0,0,0,1.749-.349c-.035-.42-.035-.658-.035-1.075s.028-.682.07-1.1A2.408,2.408,0,0,1,423.809,231.2Z" fill="#717071"/>
      <path id="패스_28" data-name="패스 28" d="M426.923,229.657a1.9,1.9,0,0,0-1.863,2.005,1.72,1.72,0,0,0,1.843,1.954,1.813,1.813,0,0,0,1.877-2.056A1.741,1.741,0,0,0,426.923,229.657Zm-.035,3.629c-.525,0-.694-.719-.694-1.651,0-.7.142-1.641.742-1.641.618,0,.738.934.738,1.583C427.674,232.477,427.478,233.286,426.887,233.286Z" fill="#717071"/>
      <path id="패스_29" data-name="패스 29" d="M431.764,229.789s-.232.751-.388,1.225c-.2.612-.546,1.567-.546,1.567s-.286-.8-.44-1.327c-.169-.564-.4-1.465-.4-1.465a2.7,2.7,0,0,1-.554.066,2.59,2.59,0,0,1-.615-.066c.287.743.449,1.194.705,1.949.246.707.377,1.064.6,1.792a1.839,1.839,0,0,1,.8,0c.272-.746.434-1.166.707-1.909.261-.7.416-1.123.672-1.831a.7.7,0,0,1-.248.046A.793.793,0,0,1,431.764,229.789Z" fill="#717071"/>
      <path id="패스_30" data-name="패스 30" d="M434.214,229.695a1.726,1.726,0,0,0-1.823,1.948,1.778,1.778,0,0,0,1.808,2.01,1.8,1.8,0,0,0,1.174-.358l.158-.426-.1-.069a1.344,1.344,0,0,1-.883.362c-1.078,0-1.078-1.384-1.067-1.462h2.171C435.713,231.389,435.763,229.695,434.214,229.695Zm.44,1.609h-1.145c-.017-.023.006-1.279.613-1.279C434.684,230.025,434.654,231.3,434.654,231.3Z" fill="#717071"/>
      <path id="패스_31" data-name="패스 31" d="M438.275,229.722a1.468,1.468,0,0,0-.8,1.007l.016-.94a1.939,1.939,0,0,1-.461.058,2.149,2.149,0,0,1-.545-.058c.035.682.037,1.022.037,1.7,0,.791-.012,1.254-.061,2.041a3.474,3.474,0,0,1,.539-.035,3.581,3.581,0,0,1,.548.035c-.007-.058-.059-.883-.036-1.448s-.079-1.086.484-1.321a.691.691,0,0,1,.656.078l.071-.078a2.761,2.761,0,0,1-.029-.544,3.64,3.64,0,0,1,.056-.53A1.068,1.068,0,0,0,438.275,229.722Z" fill="#717071"/>
      <path id="패스_32" data-name="패스 32" d="M441.511,229.686a1.411,1.411,0,0,0-1.145.675l.02-.572a2.421,2.421,0,0,1-.52.05,2.373,2.373,0,0,1-.517-.05c.027.674.035,1.029.035,1.7-.008.8-.023,1.238-.064,2.041a2.753,2.753,0,0,1,.54-.043,2.824,2.824,0,0,1,.545.043c-.006-.007-.056-1.236-.033-2.006,0-.521.106-1.162.674-1.148.584.007.6.643.607,1.148,0,.822-.072,1.962-.086,2.006a3.523,3.523,0,0,1,.542-.051,3.27,3.27,0,0,1,.587.051s-.026-1.04-.026-1.676C442.67,230.893,442.837,229.686,441.511,229.686Z" fill="#717071"/>
      <path id="패스_33" data-name="패스 33" d="M444.92,229.789a3.633,3.633,0,0,1-.575.038,3.025,3.025,0,0,1-.581-.038c.031.674.039,1.049.039,1.722-.008.8-.029,1.232-.079,2.018a3.867,3.867,0,0,1,.575-.058,3.192,3.192,0,0,1,.578.058c-.049-.81-.064-1.242-.049-2.056C444.844,230.826,444.864,230.441,444.92,229.789Z" fill="#717071"/>
      <path id="패스_34" data-name="패스 34" d="M444.34,227.712a.623.623,0,1,0,.6.63A.624.624,0,0,0,444.34,227.712Z" fill="#717071"/>
      <path id="패스_35" data-name="패스 35" d="M447.953,229.686a1.424,1.424,0,0,0-1.149.675l.023-.572a2.426,2.426,0,0,1-.519.05,2.387,2.387,0,0,1-.518-.05c.03.674.035,1.029.035,1.7-.006.8-.02,1.238-.063,2.041a2.731,2.731,0,0,1,.538-.043,2.876,2.876,0,0,1,.549.043c-.008-.007-.056-1.236-.037-2.006.007-.521.105-1.162.675-1.148s.6.643.605,1.148c0,.822-.068,1.962-.083,2.006a3.457,3.457,0,0,1,.54-.051,3.3,3.3,0,0,1,.589.051s-.027-1.04-.027-1.676C449.111,230.893,449.275,229.686,447.953,229.686Z" fill="#717071"/>
      <path id="패스_36" data-name="패스 36" d="M453.284,229.768c-.341.013-.548.013-.888.013-.575-.005-.575-.071-.959-.071-.655,0-1.573.2-1.586,1.249a1.2,1.2,0,0,0,.939,1.217v.072c-.008,0-.712.2-.712.737a.666.666,0,0,0,.506.652,1,1,0,0,0-.842.979c0,.815.882,1.019,1.608,1.019A1.816,1.816,0,0,0,453.278,234a1,1,0,0,0-.488-.9c-.52-.31-1.915.1-1.879-.574.028-.578.677-.05,1.393-.448A1.2,1.2,0,0,0,452.96,231a1.054,1.054,0,0,0-.426-.9l.71.037Zm-1.847,3.931c.46,0,.959.117.959.706a.984.984,0,0,1-1.964.007C450.432,233.667,450.966,233.691,451.437,233.7Zm-.03-1.732c-.407,0-.512-.53-.512-.957s.121-.99.543-.99.467.572.467,1S451.821,231.966,451.407,231.966Z" fill="#717071"/>
      <path id="패스_37" data-name="패스 37" d="M458.157,228.138a10.6,10.6,0,0,1-1.513.015c.042,1.046.025,1.609.048,2.658.018,1.071-.023,1.645-.078,2.718.243-.007.389-.017.637-.017s.392,0,.634.017c-.02-.558-.034-.838-.056-1.389-.013-.362-.02-.579-.026-.94.113.065,2.431.252,2.431-1.713C460.234,228.54,459.6,228.036,458.157,228.138Zm-.341,2.634.02-2.218c1.046,0,1.165.482,1.165,1.032A1.075,1.075,0,0,1,457.816,230.772Z" fill="#717071"/>
      <path id="패스_38" data-name="패스 38" d="M462.65,229.722a1.468,1.468,0,0,0-.8,1.007l.017-.94a1.974,1.974,0,0,1-.462.058,2.144,2.144,0,0,1-.545-.058c.034.682.039,1.022.039,1.7,0,.791-.015,1.254-.065,2.041a3.5,3.5,0,0,1,.539-.035,3.593,3.593,0,0,1,.549.035c-.008-.058-.059-.883-.038-1.448s-.077-1.086.486-1.321a.692.692,0,0,1,.656.078l.071-.078a2.639,2.639,0,0,1-.029-.544,3.425,3.425,0,0,1,.055-.53A1.066,1.066,0,0,0,462.65,229.722Z" fill="#717071"/>
      <path id="패스_39" data-name="패스 39" d="M465.4,229.657a1.9,1.9,0,0,0-1.862,2.005,1.719,1.719,0,0,0,1.84,1.954,1.813,1.813,0,0,0,1.878-2.056A1.74,1.74,0,0,0,465.4,229.657Zm-.035,3.629c-.525,0-.693-.719-.693-1.651,0-.7.138-1.641.742-1.641s.739.934.739,1.583C466.149,232.477,465.95,233.286,465.361,233.286Z" fill="#717071"/>
      <path id="패스_40" data-name="패스 40" d="M470.239,229.789s-.232.751-.388,1.225c-.2.612-.548,1.567-.548,1.567s-.286-.8-.44-1.327c-.171-.564-.4-1.465-.4-1.465a2.667,2.667,0,0,1-.556.066,2.562,2.562,0,0,1-.611-.066c.285.743.449,1.194.706,1.949.242.707.377,1.064.6,1.792a1.845,1.845,0,0,1,.8,0c.272-.746.433-1.166.7-1.909.262-.7.419-1.123.67-1.831a.665.665,0,0,1-.247.046A.774.774,0,0,1,470.239,229.789Z" fill="#717071"/>
      <path id="패스_41" data-name="패스 41" d="M472.712,229.789a3.628,3.628,0,0,1-.575.038,2.963,2.963,0,0,1-.577-.038c.025.674.033,1.049.033,1.722-.008.8-.027,1.232-.075,2.018a3.822,3.822,0,0,1,.574-.058,3.211,3.211,0,0,1,.578.058c-.049-.81-.064-1.242-.049-2.056C472.636,230.826,472.655,230.441,472.712,229.789Z" fill="#717071"/>
      <path id="패스_42" data-name="패스 42" d="M472.13,227.712a.609.609,0,0,0-.6.613.6.6,0,1,0,1.206.017A.625.625,0,0,0,472.13,227.712Z" fill="#717071"/>
      <path id="패스_43" data-name="패스 43" d="M475.743,229.686a1.414,1.414,0,0,0-1.146.675l.023-.572a2.44,2.44,0,0,1-.519.05,2.415,2.415,0,0,1-.521-.05c.028.674.034,1.029.034,1.7-.006.8-.019,1.238-.062,2.041a2.764,2.764,0,0,1,.541-.043,2.812,2.812,0,0,1,.543.043c-.006-.007-.056-1.236-.034-2.006.009-.521.106-1.162.674-1.148.587.007.6.643.606,1.148,0,.822-.069,1.962-.082,2.006a3.443,3.443,0,0,1,.539-.051,3.332,3.332,0,0,1,.59.051s-.029-1.04-.029-1.676C476.9,230.893,477.067,229.686,475.743,229.686Z" fill="#717071"/>
      <path id="패스_44" data-name="패스 44" d="M479.738,230.093a.772.772,0,0,1,.769.776l.183.031.3-.828a2.158,2.158,0,0,0-1.3-.36,1.9,1.9,0,0,0-2.019,1.976,1.818,1.818,0,0,0,1.926,1.952,1.786,1.786,0,0,0,1.1-.3l.171-.461-.128-.1a1.127,1.127,0,0,1-.918.362c-.71,0-1-.695-1-1.527C478.827,230.92,479.092,230.093,479.738,230.093Z" fill="#717071"/>
      <path id="패스_45" data-name="패스 45" d="M483.519,229.695a1.725,1.725,0,0,0-1.822,1.948,1.777,1.777,0,0,0,1.806,2.01,1.8,1.8,0,0,0,1.174-.358l.16-.426-.1-.069a1.352,1.352,0,0,1-.885.362c-1.079,0-1.079-1.384-1.066-1.462h2.173C485.019,231.389,485.067,229.695,483.519,229.695Zm.44,1.609h-1.147c-.013-.023.008-1.279.616-1.279C483.988,230.025,483.959,231.3,483.959,231.3Z" fill="#717071"/>
      <path id="패스_46" data-name="패스 46" d="M361.313,218.894s1.44-1.671,3.6-4.412a24.436,24.436,0,0,1,2.756,4.139l.075.168,1.482-2.286-.06-.061a33.831,33.831,0,0,0-3.444-3.032c.128-.169,3.191-4.261,3.191-4.261l-1.383-2.061a15.435,15.435,0,0,1-1.959.286c-.8,0-4.837-.139-4.837-.139l.34,1.818s4.039-.245,4.849-.3c-1.355,2.676-5.857,9.638-5.857,9.638Z" fill="#717071"/>
      <path id="패스_47" data-name="패스 47" d="M370.082,212.079c-1.156-.06-2.527-.164-2.527-.164l.129,2.018s2.231-.41,2.44-.452c.133,3.063.149,9.019.149,9.019l1.737-.885,0-.064c.025-.56.542-15.357.542-15.357l-2.756-.546S369.948,207.852,370.082,212.079Z" fill="#717071"/>
      <path id="패스_48" data-name="패스 48" d="M376.209,205.3l-2.978-.236s.506,15.294.52,18.395l1.824-1.021Z" fill="#717071"/>
      <path id="패스_49" data-name="패스 49" d="M465.578,222.44l.637-17.138-3.09-.236s.506,15.294.518,18.395Z" fill="#717071"/>
      <path id="패스_50" data-name="패스 50" d="M447.311,213.482c.973.187,2.883.471,2.883.471.064-.624.144-1.923.144-1.923s-2.031.151-2.985.234l.261-6.961-3.09-.236s.5,15.294.518,18.395l1.933-1.021Z" fill="#717071"/>
      <path id="패스_51" data-name="패스 51" d="M381.283,213.592s4.283-2,6.218-3.108c1.695,1.009,4.618,2.745,5.575,3.278l.091.051,1.036-2.13s-4.794-1.89-5.185-2.042c.316-.172,3.91-2.083,3.91-2.083l-1.921-1.748c-1.6.707-10.017.242-10.017.242l.149,1.489s6.035.033,6.521.033a52.277,52.277,0,0,1-7.821,5.339Z" fill="#717071"/>
      <path id="패스_52" data-name="패스 52" d="M385.967,223.464l2.449-1.159s.339-4.759.339-6.252c.194,0,6.744-.021,6.744-.021l.16-1.485c-9.084.4-17.1.057-17.1.057l.545,1.6s2.626-.1,6.4-.134C385.875,220.186,385.945,221.357,385.967,223.464Z" fill="#717071"/>
      <path id="패스_53" data-name="패스 53" d="M483,214.616l-.034-1.659s-6.973.366-9.2.257c-.042-.376-.183-5.017-.16-5.572,4.517-.18,9.068.057,9.068.057l.149-1.7-12.1.069.244,8.6Z" fill="#717071"/>
      <path id="패스_54" data-name="패스 54" d="M478.23,219.969c0-.035.185-4.35.185-4.35l-3.12-.245s.22,3.543.322,4.609c-2.766,0-7.453-.173-7.453-.173l.175,1.758s9.262-.213,16.7-.1l.1-1.673S482.072,219.926,478.23,219.969Z" fill="#717071"/>
      <path id="패스_55" data-name="패스 55" d="M424.41,214.042l.419-7.935-2.579-.247.079,2.953c-.862.038-2.671.017-3.3.01l-.069-2.477-2.655-.239.733,7.933S421.533,213.89,424.41,214.042Zm-2.044-3.778.063,2.39-3.3.047-.069-2.466C420.146,210.219,421.705,210.249,422.366,210.264Z" fill="#717071"/>
      <path id="패스_56" data-name="패스 56" d="M428.22,215.367l1.843-.789c.086-.759.661-6.428.832-9.275l-2.978-.236c.039.993.07,1.932.1,2.916-.77-.152-2.045-.394-2.365-.411l.071,1.87,2.329-.21c.017.583.036,1.194.052,1.846-.8-.04-1.975.046-2.529-.035l-.037,1.613,2.6-.3C428.165,213.263,428.19,214.251,428.22,215.367Z" fill="#717071"/>
      <path id="패스_57" data-name="패스 57" d="M427.3,217.484l-.1,1.324c-1.589-.019-5.776-.121-7.613-.212l.816,4.2c3.4-.06,9.884-.06,9.884-.06l.147-1.609a61.253,61.253,0,0,1-7.643.269l-.2-1.408c2.959.073,6.993-.091,6.993-.091l.427-3.922c-2.487.207-10.68.038-10.68.038l.34,1.535C421,217.539,426.194,217.491,427.3,217.484Z" fill="#717071"/>
      <path id="패스_58" data-name="패스 58" d="M443.174,209.158l-1.667-2a10.737,10.737,0,0,1-2.228.271c-1.92-.053-4.025-.118-5.25-.184l.4,1.924c3.057-.136,5.388-.351,5.388-.351-.847,1.535-4.426,6.492-6.663,9.5l1.179.564c.908-.855,2.446-2.537,4.02-4.3a44.472,44.472,0,0,1,3.618,4.175l1.211-2.493c-1.077-.858-2.82-2.013-3.9-2.718C440.872,211.748,442.384,210.023,443.174,209.158Z" fill="#717071"/>
      <path id="패스_59" data-name="패스 59" d="M459.646,207.3l.059-1.327c-1.745-.005-5.523-.266-6.483-.3l.248,1.752S457.771,207.388,459.646,207.3Z" fill="#717071"/>
      <path id="패스_60" data-name="패스 60" d="M460,219.072l1.269-2.393c-1.2-.867-2.8-1.906-3.729-2.5,1.956-2,3.585-3.735,3.585-3.735l-1.668-1.788a9.7,9.7,0,0,1-2.392.241c-1.977-.05-3.661-.142-5.024-.153l.407,1.95c1.851-.134,5.129-.472,5.129-.472a97.806,97.806,0,0,1-6.253,8.259l1.246.571c1.054-.94,2.484-2.35,3.873-3.752A47.511,47.511,0,0,1,460,219.072Z" fill="#717071"/>
      <path id="패스_61" data-name="패스 61" d="M411.918,212.486l-.064-1.572a90.4,90.4,0,0,1-9.052.107l.014-1.319c2.743.01,5.718.053,8.951.2v-1.525c-2.684.12-5,.218-8.94.079l.013-1.13c2.354.07,6.265.12,9,.019l.04-1.489a108.779,108.779,0,0,1-11.918-.106l.316,6.637C401.856,212.444,407.151,212.353,411.918,212.486Z" fill="#717071"/>
      <path id="패스_62" data-name="패스 62" d="M409.252,218.738s.212,3.692.184,4.74l2.22-1.109.572-5.087s-9.913.081-12.409.03l.249,1.462C404.788,218.626,409.252,218.738,409.252,218.738Z" fill="#717071"/>
      <path id="패스_63" data-name="패스 63" d="M414.339,215.552l.161-1.485c-9.085.4-16.887.058-16.887.058l.548,1.6C406.536,215.389,414.339,215.552,414.339,215.552Z" fill="#717071"/>
    </g>
  </g>
</svg>
