<svg xmlns="http://www.w3.org/2000/svg" xmlns:xlink="http://www.w3.org/1999/xlink" width="370" height="74" viewBox="0 0 370 74">
  <defs>
    <clipPath id="clip-path">
      <rect id="사각형_256" data-name="사각형 256" width="370" height="26" transform="translate(160 428)" fill="none" stroke="#707070" stroke-width="1"/>
    </clipPath>
    <clipPath id="clip-path-2">
      <rect id="사각형_257" data-name="사각형 257" width="334" height="42" transform="translate(160 442)" fill="none" stroke="#707070" stroke-width="1"/>
    </clipPath>
  </defs>
  <g id="sea" transform="translate(-160 -428)">
    <g id="wave" clip-path="url(#clip-path)">
      <path id="합치기_1" data-name="합치기 1" d="M471.5,61.818c-6.749,0-10.125,3.091-13.5,6.182-3.376-3.091-6.752-6.182-13.5-6.182S434.37,64.909,430.994,68c-3.376-3.091-6.749-6.182-13.5-6.182s-10.125,3.091-13.5,6.182c-3.376-3.091-6.752-6.182-13.5-6.182S380.369,64.909,377,68c-3.376-3.091-6.752-6.182-13.5-6.182S353.372,64.909,350,68c-3.373-3.091-6.749-6.182-13.5-6.182S326.374,64.906,323,68V6.179C326.374,3.089,329.748,0,336.5,0S346.623,3.091,350,6.182C353.372,3.091,356.746,0,363.495,0S373.62,3.091,377,6.182C380.369,3.091,383.745,0,390.494,0s10.125,3.091,13.5,6.182C407.368,3.091,410.744,0,417.493,0s10.125,3.091,13.5,6.182C434.37,3.091,437.746,0,444.5,0S454.622,3.091,458,6.182C461.374,3.091,464.75,0,471.5,0S481.624,3.091,485,6.182l0,0V68l0,0C481.624,64.909,478.248,61.818,471.5,61.818Zm-162,0c-6.749,0-10.125,3.091-13.5,6.182-3.376-3.091-6.752-6.182-13.5-6.182S272.37,64.909,268.994,68c-3.376-3.091-6.749-6.182-13.5-6.182s-10.125,3.091-13.5,6.182c-3.376-3.091-6.751-6.182-13.5-6.182S218.369,64.909,215,68c-3.376-3.091-6.752-6.182-13.5-6.182S191.372,64.909,188,68c-3.373-3.091-6.749-6.182-13.5-6.182-6.085,0-9.427,2.51-12.5,5.269V68l0,0-.5-.457L161,68v-.905c-3.072-2.761-6.415-5.274-12.5-5.274-6.749,0-10.125,3.091-13.5,6.182-3.376-3.091-6.752-6.182-13.5-6.182S111.37,64.909,107.995,68c-3.376-3.091-6.75-6.182-13.5-6.182S84.369,64.909,80.995,68c-3.375-3.091-6.751-6.182-13.5-6.182S57.37,64.909,54,68c-3.376-3.091-6.751-6.182-13.5-6.182S30.372,64.909,27,68c-3.373-3.091-6.749-6.182-13.5-6.182S3.375,64.906,0,68V6.179C3.375,3.089,6.748,0,13.5,0S23.623,3.091,27,6.182C30.372,3.091,33.746,0,40.495,0S50.62,3.091,54,6.182C57.37,3.091,60.745,0,67.495,0s10.125,3.091,13.5,6.182C84.369,3.091,87.745,0,94.494,0s10.125,3.091,13.5,6.182C111.37,3.091,114.746,0,121.5,0S131.622,3.091,135,6.182C138.374,3.091,141.75,0,148.5,0c6.416,0,9.784,2.793,13,5.725C164.714,2.793,168.08,0,174.5,0c6.749,0,10.125,3.091,13.5,6.182C191.372,3.091,194.746,0,201.495,0S211.62,3.091,215,6.182C218.369,3.091,221.745,0,228.494,0s10.125,3.091,13.5,6.182C245.369,3.091,248.744,0,255.494,0s10.124,3.091,13.5,6.182C272.37,3.091,275.746,0,282.5,0S292.622,3.091,296,6.182C299.374,3.091,302.75,0,309.5,0S319.624,3.091,323,6.182l0,0V68l0,0C319.624,64.909,316.248,61.818,309.5,61.818Z" transform="translate(154 428.001)" fill="#dbf2f8" stroke="rgba(0,0,0,0)" stroke-miterlimit="10" stroke-width="1"/>
    </g>
    <path id="Rectangle_1055" data-name="Rectangle 1055" d="M0,0H370a0,0,0,0,1,0,0V40a20,20,0,0,1-20,20H20A20,20,0,0,1,0,40V0A0,0,0,0,1,0,0Z" transform="translate(160 442)" fill="#dbf2f8"/>
    <g id="fish" clip-path="url(#clip-path-2)">
      <g id="그룹_1369" data-name="그룹 1369" transform="matrix(-0.829, 0.559, -0.559, -0.829, 199.604, 419.241)">
        <path id="패스_585" data-name="패스 585" d="M23.108-33.409c1.155.566,1.536,2.649,1.011,3.824-3.588-1-4.312-3.385-4.433-4.661-1.316,1.082-4.367.879-7.41-.612-3.521-1.724-5.691-4.515-4.85-6.233s4.378-1.714,7.9.011c3.042,1.491,5.072,3.777,5.025,5.48,1.082-.686,3.407-1.574,6.4.646-.606,1.135-2.485,2.111-3.641,1.545" fill="#b3e2ed"/>
        <path id="패스_1917" data-name="패스 1917" d="M23.108-33.409c1.155.566,1.536,2.649,1.011,3.824-3.588-1-4.312-3.385-4.433-4.661-1.316,1.082-4.367.879-7.41-.612-3.521-1.724-5.691-4.515-4.85-6.233s4.378-1.714,7.9.011c3.042,1.491,5.072,3.777,5.025,5.48,1.082-.686,3.407-1.574,6.4.646-.606,1.135-2.485,2.111-3.641,1.545" transform="translate(-204.774 -138.126)" fill="#b3e2ed"/>
        <path id="패스_586" data-name="패스 586" d="M45.914-32.3c1.156.567,1.537,2.649,1.011,3.824-3.588-1-4.312-3.385-4.433-4.661-1.316,1.082-4.367.879-7.41-.612-3.52-1.724-5.691-4.515-4.85-6.233s4.378-1.714,7.9.011c3.043,1.491,5.073,3.777,5.025,5.48,1.082-.686,3.407-1.574,6.4.646-.606,1.136-2.485,2.111-3.641,1.545" fill="#b3e2ed"/>
        <path id="패스_587" data-name="패스 587" d="M15.863-56.442c1.156.567,1.537,2.649,1.011,3.824-3.588-1-4.312-3.385-4.433-4.661-1.316,1.082-4.367.879-7.41-.612C1.51-59.615-.661-62.406.181-64.124s4.378-1.714,7.9.011c3.043,1.491,5.073,3.777,5.025,5.48,1.082-.686,3.407-1.574,6.4.646-.606,1.135-2.485,2.111-3.641,1.545" fill="#b3e2ed"/>
        <path id="패스_1916" data-name="패스 1916" d="M15.863-56.442c1.156.567,1.537,2.649,1.011,3.824-3.588-1-4.312-3.385-4.433-4.661-1.316,1.082-4.367.879-7.41-.612C1.51-59.615-.661-62.406.181-64.124s4.378-1.714,7.9.011c3.043,1.491,5.073,3.777,5.025,5.48,1.082-.686,3.407-1.574,6.4.646-.606,1.135-2.485,2.111-3.641,1.545" transform="translate(-204.774 -138.126)" fill="#b3e2ed"/>
        <path id="패스_589" data-name="패스 589" d="M54.531-10.22c1.156.567,1.537,2.649,1.011,3.824-3.588-1-4.312-3.385-4.433-4.661-1.316,1.082-4.367.879-7.41-.612-3.52-1.724-5.691-4.515-4.849-6.233s4.378-1.714,7.9.011c3.043,1.491,5.073,3.777,5.025,5.48,1.082-.686,3.408-1.574,6.4.646-.606,1.135-2.485,2.111-3.641,1.545" fill="#b3e2ed"/>
      </g>
    </g>
  </g>
</svg>
