<svg xmlns="http://www.w3.org/2000/svg" width="275" height="31" viewBox="0 0 275 31">
  <g id="slogan" transform="translate(-93.391 -151.075)">
    <g id="그룹_139" data-name="그룹 139">
      <path id="패스_563" data-name="패스 563" d="M122.711,159.513a3.707,3.707,0,1,1-3.453,0h-2.306a5.336,5.336,0,0,0-1.156,3.328,5.19,5.19,0,1,0,10.377,0,5.335,5.335,0,0,0-1.156-3.328Z" fill="#003581"/>
      <g id="그룹_136" data-name="그룹 136">
        <path id="패스_564" data-name="패스 564" d="M322.581,173.834l-2.569,2.063q-1.7-1.719-3.072-3.386t-2.724-3.7q-.729,1.1-1.423,2.08t-1.423,1.874q-.728.895-1.492,1.737t-1.631,1.7l-2.777-1.994a38.013,38.013,0,0,0,3.193-3.867,45.63,45.63,0,0,0,2.742-4.384,5.9,5.9,0,0,0,.625-1.77,10.6,10.6,0,0,0,.173-1.908v-6.36h-5.414V152.69H321.3v3.232H316.09v6.395a8.538,8.538,0,0,0,.174,1.736,6.139,6.139,0,0,0,.59,1.633,39.007,39.007,0,0,0,2.534,4.108A45.242,45.242,0,0,0,322.581,173.834Zm4.789,8.24h-3.713V163.864h-4.616v-3.438h4.616v-9.351h3.713Zm6.039,0h-3.714v-31h3.714Z" fill="#003581"/>
        <path id="패스_565" data-name="패스 565" d="M368.391,171.324h-13.57v10.75h-3.956v-10.75H337.329v-3.3h31.061Zm-2.012-8.251-1.666,2.682q-2.986-1.065-5.848-2.39a56.257,56.257,0,0,1-6.022-3.283,56.213,56.213,0,0,1-6.022,3.283q-2.862,1.324-5.848,2.39l-1.666-2.682a58.545,58.545,0,0,0,5.379-2.423,43.646,43.646,0,0,0,4.79-2.871,3.131,3.131,0,0,0,1.388-2.613v-.1h-9.857v-3.231h23.669v3.231h-9.856v.1a3.127,3.127,0,0,0,1.388,2.613A43.594,43.594,0,0,0,361,160.65,58.413,58.413,0,0,0,366.378,163.073Z" fill="#003581"/>
      </g>
      <path id="패스_566" data-name="패스 566" d="M93.391,172.909V157.072H104.08v1.584H95.319V171.3h2.328q2.578,0,4.969-.2a41.315,41.315,0,0,0,4.669-.664v1.584a40.184,40.184,0,0,1-4.631.677q-2.429.217-5.007.217Zm15.02,5.175V155.668h1.928v8.225h3.555v1.686h-3.555v12.5Z" fill="#003581"/>
      <path id="패스_567" data-name="패스 567" d="M117.173,169.972v8.174h15.07v-8.174Zm13.142,6.59H119.1v-5.006h11.215Z" fill="#003581"/>
      <path id="패스_568" data-name="패스 568" d="M130.316,168.695V155.668h1.928v5.8h3.43v1.686h-3.43v5.543Z" fill="#003581"/>
      <path id="패스_569" data-name="패스 569" d="M135.172,172.118a14.968,14.968,0,0,0,2.178-3.091,21.018,21.018,0,0,0,1.439-3.423,24.571,24.571,0,0,0,.851-3.525q.287-1.762.413-3.423h-3.6v-1.584h5.508q-.126,2.223-.426,4.355a27.6,27.6,0,0,1-.9,4.125,22.6,22.6,0,0,1-1.565,3.857,18.38,18.38,0,0,1-2.416,3.55Zm5.282,1.277a18.067,18.067,0,0,0,2.165-3.244,22.3,22.3,0,0,0,1.477-3.576,26.484,26.484,0,0,0,.9-3.857,34.135,34.135,0,0,0,.388-4.061h-2.728v-1.584h4.631q-.076,1.993-.25,3.793a32.809,32.809,0,0,1-.526,3.487h3.1v-8.576h1.878v22.307h-1.878V166.038h-3.53a22.642,22.642,0,0,1-1.6,4.291,20.624,20.624,0,0,1-2.554,3.908Zm13.193,4.689V155.776h1.878v22.307Z" fill="#003581"/>
      <path id="패스_570" data-name="패스 570" d="M164.361,172.909V157.072h10.915v15.837Zm1.927-1.583h7.059V158.656h-7.059Zm13.719,6.758V155.776h1.927v22.307Z" fill="#003581"/>
      <path id="패스_571" data-name="패스 571" d="M186.015,173.292v-9.144h6.91v-5.62h-6.91v-1.584h8.812v8.736h-6.909v6h2.6q1.427,0,2.928-.115t3.079-.37v1.558a35.876,35.876,0,0,1-6.008.536Zm11.641,4.791V155.7h1.878v8.321h2.929V155.7h1.878v22.384h-1.878V165.706h-2.929v12.377Z" fill="#003581"/>
      <path id="패스_572" data-name="패스 572" d="M206.392,176.157v-1.584H216.48v-4.547h-7.059v-7.178h13.894v-3.882H209.421v-1.584h15.821v7H211.348v4.061h14.4v1.584h-7.31v4.547H228.3v1.584Z" fill="#003581"/>
      <path id="패스_573" data-name="패스 573" d="M244.443,156.562v3.4h-7.06v-3.4h-1.927V166.6h10.915V156.562Zm0,8.506h-7.06v-3.6h7.06Z" fill="#003581"/>
      <rect id="사각형_16" data-name="사각형 16" width="1.928" height="12.484" transform="translate(250.977 155.699)" fill="#003581"/>
      <path id="패스_574" data-name="패스 574" d="M257.36,172.654V156.69h1.927v14.355h2.2q2.579,0,4.969-.2a41.479,41.479,0,0,0,4.669-.664v1.584a40.212,40.212,0,0,1-4.632.677q-2.428.217-5.007.217Zm14.895,5.43V155.7h1.927v7.682h3.555v1.686h-3.555v13.016Z" fill="#003581"/>
      <path id="패스_575" data-name="패스 575" d="M277.362,168.771v-1.584h21.9v1.584Zm2.9-4.93V155.7h1.927v6.559h14.645v1.583Zm0,14.177v-6.769h1.927v5.185h14.645v1.584Z" fill="#003581"/>
      <g id="그룹_137" data-name="그룹 137">
        <rect id="사각형_17" data-name="사각형 17" width="4.906" height="1.583" transform="translate(248.259 170.227)" fill="#ea6000"/>
        <rect id="사각형_18" data-name="사각형 18" width="4.896" height="1.583" transform="translate(237.584 170.227)" fill="#ea6000"/>
        <path id="패스_576" data-name="패스 576" d="M247.8,174.1a5.783,5.783,0,0,1-.875,1.436l4.647,2.592.809-1.629S249.081,174.866,247.8,174.1Z" fill="#ea6000"/>
        <path id="패스_577" data-name="패스 577" d="M244.368,167.877v3.934a2.217,2.217,0,0,1-1.225,2.16c-1.08.694-4.788,2.526-4.788,2.526l.808,1.629,5.051-2.816a3.936,3.936,0,0,0,2.157-3.5v-3.934Z" fill="#ea6000"/>
      </g>
      <g id="그룹_138" data-name="그룹 138">
        <rect id="사각형_19" data-name="사각형 19" width="4.906" height="1.584" transform="translate(123.367 157.086)" fill="#ea6000"/>
        <rect id="사각형_20" data-name="사각형 20" width="4.896" height="1.584" transform="translate(113.697 157.086)" fill="#ea6000"/>
      </g>
      <path id="패스_578" data-name="패스 578" d="M121.881,151.814h-1.792v4.342h1.792Z" fill="#ea6000"/>
    </g>
  </g>
</svg>
